PathFileType	4	(X/Y/Z)	./resultDataOpenSim/trcMotMarkerGrf/sub06/qtm-03-03.trc
DataRate	CameraRate	NumFrames	NumMarkers	Units	OrigDataRate	OrigDataStartFrame	OrigNumFrames
250.000000	250.000000	9	24	m	250.000000	186	495
Frame#	Time	L.Toe.Tip			R.Toe.Tip			L.Ankle.Lat			R.Ankle.Lat			L.Ankle.Med			R.Ankle.Med			L.Heel			R.Heel			L.Knee.Lat			R.Knee.Lat			L.Knee.Med			R.Knee.Med			L.Thigh.Upper			R.Thigh.Upper			L.ASIS			R.ASIS			V.Sacral			L.Acromium			R.Acromium			C7			L.Elbow			R.Elbow			L.Wrist.Lat			R.Wrist.Lat
		X1	Y1	Z1	X2	Y2	Z2	X3	Y3	Z3	X4	Y4	Z4	X5	Y5	Z5	X6	Y6	Z6	X7	Y7	Z7	X8	Y8	Z8	X9	Y9	Z9	X10	Y10	Z10	X11	Y11	Z11	X12	Y12	Z12	X13	Y13	Z13	X14	Y14	Z14	X15	Y15	Z15	X16	Y16	Z16	X17	Y17	Z17	X18	Y18	Z18	X19	Y19	Z19	X20	Y20	Z20	X21	Y21	Z21	X22	Y22	Z22	X23	Y23	Z23	X24	Y24	Z24

186	0.74	0.052807541	-0.01502268	-0.015084497	-0.51894162	0.090146734	0.12584887	-0.068898619	0.015548618	-0.03970536	-0.52902942	0.22642104	0.1584918	-0.07080279	0.030512289	0.047497204	-0.48946074	0.21801834	0.07860847	-0.14668355	-0.0094743692	0.0032156909	-0.55441479	0.273378	0.097116692	0.02368125	0.37706034	-0.064909364	-0.17342127	0.34152987	0.21589793	-0.0044344935	0.37805742	0.0538817	-0.18005195	0.32957904	0.084134732	-0.11714692	0.74617563	-0.1366214	-0.20270484	0.70520936	0.1960366	-0.060592976	0.78030696	-0.078530521	-0.097702781	0.76473718	0.16690227	-0.26365552	0.8552056	0.028153381	-0.12224316	1.251725	-0.16295924	-0.13615945	1.2547253	0.2007991	-0.20795296	1.293605	0.013574336	-0.22915476	0.95594224	-0.2015793	-0.20735291	0.9410581	0.27247596	-0.13834145	0.73478541	-0.26388448	-0.016980008	0.78478911	0.30982744
187	0.744	0.052815555	-0.015015987	-0.01503364	-0.50207061	0.091761212	0.12693677	-0.068934934	0.015649075	-0.039661819	-0.51355695	0.22799943	0.15901056	-0.070914823	0.030575687	0.047538875	-0.47409291	0.21968209	0.078976894	-0.14672612	-0.0093791368	0.0032575727	-0.54000291	0.27444703	0.097570186	0.024762869	0.37723124	-0.064348167	-0.15914131	0.34407447	0.21630452	-0.0037424148	0.37837228	0.054406738	-0.16620251	0.33184828	0.08440867	-0.11229254	0.74763696	-0.13677812	-0.19635454	0.70756893	0.19619026	-0.055113037	0.7819232	-0.078757125	-0.0917967	0.76687152	0.16693289	-0.25782182	0.85768441	0.028157886	-0.11521105	1.2538785	-0.16282146	-0.13018428	1.257049	0.20103927	-0.20113728	1.2958297	0.01353614	-0.22102002	0.95735401	-0.20239583	-0.20293757	0.94365992	0.27182859	-0.12677128	0.73707984	-0.26302779	-0.015480505	0.7846868	0.31036661
188	0.748	0.052777767	-0.015012147	-0.015026048	-0.48501931	0.093230389	0.12799804	-0.068951003	0.015754552	-0.039608727	-0.49809148	0.22935609	0.15951584	-0.071022527	0.030654881	0.047572202	-0.45865302	0.22113753	0.079358444	-0.14676667	-0.0092792499	0.0032863747	-0.52557309	0.27528731	0.098015781	0.025728587	0.37742944	-0.063756439	-0.14486252	0.34684248	0.21663444	-0.0031133177	0.37864289	0.054903434	-0.15229047	0.33428487	0.084610811	-0.10767414	0.74912782	-0.13687654	-0.18996238	0.70999233	0.19643381	-0.049569337	0.78366121	-0.078989262	-0.085845769	0.76904235	0.16691512	-0.25193007	0.86017103	0.028178289	-0.10827528	1.256114	-0.16263718	-0.12417506	1.2594018	0.20126405	-0.19435681	1.2980978	0.013544937	-0.21287983	0.95883436	-0.20324273	-0.1985384	0.94633783	0.27124629	-0.1151881	0.73947637	-0.26209675	-0.014059367	0.78470944	0.31089032
189	0.752	0.052699441	-0.01501366	-0.015050867	-0.46775071	0.094571638	0.12904397	-0.068960438	0.015867657	-0.039554536	-0.48273455	0.23044428	0.15996189	-0.071129303	0.030748693	0.047598374	-0.44320661	0.22245038	0.079801545	-0.14680448	-0.009179452	0.0033012171	-0.51110641	0.27590934	0.098443666	0.026557569	0.37763034	-0.06315963	-0.13059808	0.34982157	0.21688567	-0.0025440761	0.37888483	0.055385935	-0.13835723	0.33690938	0.084712191	-0.10327075	0.75064052	-0.13693615	-0.18355062	0.71248915	0.19680183	-0.043996769	0.78549834	-0.079215794	-0.079848867	0.77126078	0.16684979	-0.24592299	0.86261304	0.028165736	-0.10142475	1.25842	-0.16240985	-0.11811336	1.261776	0.20147087	-0.187609	1.3004011	0.013600859	-0.20473564	0.96037535	-0.20411694	-0.19427513	0.9491213	0.27075421	-0.10360603	0.74197726	-0.26109738	-0.012709404	0.78485557	0.31140034
190	0.756	0.052621617	-0.015015307	-0.015073041	-0.45025797	0.095784565	0.13008758	-0.068965259	0.015998192	-0.039495216	-0.46745484	0.23128863	0.16036155	-0.071239726	0.030850038	0.04761722	-0.42775188	0.22364798	0.080339895	-0.14684085	-0.0090816912	0.0033050922	-0.49663451	0.27631044	0.098844436	0.027251236	0.37782601	-0.062570427	-0.11636669	0.353005	0.21706855	-0.0020548138	0.37910358	0.055867995	-0.12441704	0.33975364	0.084719217	-0.098862901	0.75220063	-0.13697785	-0.17708462	0.71509147	0.19732123	-0.038445182	0.78741222	-0.079421922	-0.073810031	0.77353731	0.16674301	-0.23989391	0.86501001	0.028186431	-0.094644902	1.2607837	-0.16214306	-0.11198626	1.2641606	0.2016606	-0.18088413	1.3027252	0.013697016	-0.19659778	0.96196871	-0.20501195	-0.19019537	0.95201949	0.27035739	-0.092036524	0.7445831	-0.26003775	-0.011414839	0.7851198	0.31190402
191	0.76	0.052569445	-0.015009654	-0.015076999	-0.43254358	0.096859621	0.13113928	-0.068967608	0.016149518	-0.039429863	-0.45208481	0.23198018	0.16079973	-0.07135285	0.030955396	0.047627212	-0.41226871	0.2247325	0.080992775	-0.14687739	-0.0089833429	0.0033019373	-0.48219912	0.27647089	0.099218934	0.027837974	0.37802615	-0.061986168	-0.10219551	0.35639229	0.21720822	-0.0017186069	0.37928123	0.056336499	-0.11046991	0.34282496	0.084679126	-0.094172864	0.75384296	-0.13701628	-0.17042989	0.71783941	0.1980047	-0.03295526	0.78938387	-0.079595764	-0.067735475	0.77587815	0.1666044	-0.23397357	0.86739464	0.028318927	-0.087922992	1.2631939	-0.16184382	-0.10579472	1.2665449	0.20183569	-0.17416953	1.3050548	0.013823777	-0.18847546	0.96361155	-0.20591803	-0.18620891	0.95500924	0.2700232	-0.080470166	0.74729672	-0.25891986	-0.010151532	0.78548971	0.31241034
192	0.764	0.052536699	-0.014995386	-0.015070869	-0.41459284	0.097808352	0.13221288	-0.068981627	0.016313206	-0.039371163	-0.43645201	0.23261564	0.16138302	-0.071461856	0.031071429	0.047629421	-0.39674469	0.22567805	0.081715252	-0.14691695	-0.0088816685	0.0032924141	-0.46782308	0.27635231	0.099569229	0.028344104	0.37824552	-0.061400243	-0.088111569	0.3599846	0.21732509	-0.0016512757	0.3793792	0.056740864	-0.096566542	0.34607924	0.084656062	-0.08909025	0.75556852	-0.13704879	-0.16344546	0.72074989	0.19881972	-0.027540996	0.79139539	-0.079731699	-0.061629043	0.77828549	0.16644357	-0.22819374	0.86979103	0.028536811	-0.081254179	1.2656405	-0.16152252	-0.099551791	1.2689208	0.201999	-0.16745942	1.3073793	0.013973268	-0.18036884	0.96530011	-0.20682096	-0.18214204	0.95805043	0.26970032	-0.068885283	0.75012303	-0.25773808	-0.0089052059	0.78595033	0.31292826
193	0.768	0.052509294	-0.014975882	-0.015065905	-0.39636054	0.098678503	0.13334078	-0.069026431	0.016477006	-0.039337001	-0.42055872	0.23320888	0.16214024	-0.071560001	0.031208419	0.04762828	-0.38116234	0.22642118	0.082356617	-0.14696394	-0.0087774659	0.0032751529	-0.45350575	0.27591232	0.099892413	0.028779954	0.37849174	-0.06081068	-0.07413062	0.36377783	0.21741788	-0.0019267899	0.37937555	0.057043506	-0.082812262	0.34946508	0.084690189	-0.083713961	0.7573419	-0.13704765	-0.15624044	0.7237696	0.19961837	-0.022173893	0.79342866	-0.079835604	-0.055486136	0.78075803	0.16626525	-0.22241649	0.8721767	0.028689302	-0.07463994	1.268113	-0.16118668	-0.093273568	1.2712819	0.20215411	-0.16075911	1.3096929	0.014140867	-0.17227158	0.96702359	-0.20770213	-0.17790951	0.96111784	0.2693632	-0.057280223	0.75306204	-0.25648784	-0.0076998285	0.78649332	0.31346798
194	0.772	0.052478866	-0.01495789	-0.015063862	-0.37780571	0.099515883	0.13455858	-0.069114844	0.016634081	-0.039339536	-0.40464634	0.23364416	0.16296695	-0.071646576	0.031369064	0.047627963	-0.36552747	0.2269232	0.082750344	-0.14701991	-0.0086749436	0.003257536	-0.43923198	0.27513368	0.10019538	0.029141442	0.37876173	-0.060226117	-0.060261218	0.36775967	0.21747199	-0.0025155459	0.37931119	0.057292182	-0.069292616	0.35300975	0.084734971	-0.078229757	0.75911782	-0.13698644	-0.14920258	0.72678958	0.20020629	-0.01677613	0.79546591	-0.079925501	-0.049296701	0.78329242	0.16606848	-0.21642385	0.87449531	0.028605818	-0.068077552	1.2706019	-0.16083624	-0.08697022	1.2736194	0.20230424	-0.15407958	1.3119939	0.014324991	-0.16417939	0.96877094	-0.20854277	-0.17361393	0.96421577	0.26903201	-0.045681029	0.7561059	-0.2551697	-0.0065966194	0.78712291	0.31403408
